<svg id="visual" viewBox="0 0 900 600" width="900" height="600" xmlns="http://www.w3.org/2000/svg" xmlns:xlink="http://www.w3.org/1999/xlink" version="1.1"><path d="M0 552L30 552.5C60 553 120 554 180 544.7C240 535.3 300 515.7 360 512C420 508.3 480 520.7 540 509.2C600 497.7 660 462.3 720 465C780 467.7 840 508.3 870 528.7L900 549L900 601L870 601C840 601 780 601 720 601C660 601 600 601 540 601C480 601 420 601 360 601C300 601 240 601 180 601C120 601 60 601 30 601L0 601Z" fill="#40b4da"></path><path d="M0 575L30 578.5C60 582 120 589 180 577.3C240 565.7 300 535.3 360 531.8C420 528.3 480 551.7 540 556.3C600 561 660 547 720 549.5C780 552 840 571 870 580.5L900 590L900 601L870 601C840 601 780 601 720 601C660 601 600 601 540 601C480 601 420 601 360 601C300 601 240 601 180 601C120 601 60 601 30 601L0 601Z" fill="#05c072"></path></svg>